<svg version="1" xmlns="http://www.w3.org/2000/svg" width="346.667" height="346.667" viewBox="0 0 260.000000 260.000000"><path d="M105.4 32.6c.3.7-.5 1-2 .8-1.3-.1-2.2.2-1.8.7.3.5.9.7 1.3.5.4-.3.7.8.6 2.4 0 1.5-.3 2.6-.7 2.3-.5-.2-.8.3-.8 1.1 0 1 .6 1.3 1.8 1 1.1-.4 1.3-.3.5.3-.7.5-1.1 1.7-.9 2.8.2 1.1-.4 3.1-1.3 4.5-1.5 2.4-1.5 2.4.2 1.1 1.5-1.2 1.7-1.2 1.1.4-.6 1.4-.4 1.6.6 1 .9-.5 1.1-.4.6.4-.4.6-1.3.8-1.9.4-.7-.4-.5.2.3 1.2s1 1.6.3 1.2c-.6-.4-1.5-.2-1.9.4-.4.8-.3.9.4.5s1.2-.2 1.2.4c0 .6.5.8 1.3.4.9-.6.9-.5 0 .8-.7.8-1 1.8-.6 2.2.4.4-.1.4-1.2 0-1.8-.7-1.8-.6-.6.9.7.9 1.1 2.3.8 3.1-.3.7 0 1.9.6 2.5.8.8.6 1.1-.8 1.1-1.5 0-1.7.2-.6.9.7.5 1.1 1.3.8 1.8-.3.5 0 2.1.7 3.5 1.3 2.4 1.2 2.5-.8 2-2-.4-2-.4-.2 1 1.3 1 1.5 1.7.7 2.2-.8.5-.8 1.3-.1 2.7.9 1.5.7 1.9-.5 1.9-.9 0-1.3.5-1 1 .4.6 1 .8 1.5.5.5-.3 1.2 0 1.6.6.4.8.3.9-.4.5-.8-.5-1.2.1-1.2 1.8 0 1.4.5 2.8 1 3.1.8.5.7 1.1-.1 2.1-.6.7-.8 2.1-.5 3 .5 1.2.2 1.5-1.1 1-1.4-.6-1.4-.4.3 1.5 1 1.2 1.3 1.9.6 1.5-.9-.5-1.3-.3-1.1.5.3 2.8-.1 4-1.3 3.3-1-.5-1-.3 0 .7 1.1 1.2 1.4 1.2 2.2-.1.6-.9 1-1 1-.3 0 .6-.5 1.5-1 1.8-.8.5-.7 1.2.2 2.3 1.1 1.3 1.1 1.5-.3 1-1-.4-1.6-.1-1.6.8 0 .8.6 1.3 1.3 1 1-.4 1 .4-.1 3.4-1 2.7-1.1 4.2-.3 4.6.7.4.5.9-.3 1.5-1.1.7-1.1.9-.1.9 1.5 0 1.4 6.8-.2 8.9-.9 1.2-.7 1.3.7.8 1.6-.6 1.6-.5.1 1.8-1 1.5-1.2 2.5-.5 2.5.6 0 1.1-.5 1.1-1.2 0-.6.3-.9.6-.5.3.3.2 1.1-.2 1.8s-.7 3-.7 5.1c0 3.2-.2 3.6-1.3 2.7-1.2-1-1.3-.9-.8.5.3.9.1 1.6-.5 1.6s-1.1-.4-1.1-.9c0-.6-.9-.9-1.9-.8-1.1 0-1.7.5-1.5.9.3.5 1.1.5 1.7.2.7-.4.7-.1-.1.7-1.1 1.2-1.5 1.1-2.8-.5-1.2-1.7-1.4-1.7-1.4-.3 0 .9.8 2.1 1.8 2.6.9.6 1.2 1.1.7 1.1-.6 0-2.2-1-3.5-2.3-2.5-2.3-2.5-2.3-4.1-.4-1.1 1.4-1.8 1.7-2.3.9-.4-.7-.2-1.2.4-1.2.6 0 .8-.5.4-1.1-.4-.8-.9-.7-1.5.2-.8 1.2-1.1 1.1-2-.1-.8-1.2-.9-1.1-.5.5.5 1.6.1 2.1-1.4 2.2-1.1.1-2-.3-2-.8 0-.6.4-.7 1-.4.6.3.7-.1.3-1-.5-1.3-.7-1.4-1.4-.3-.7 1.1-1.1 1-1.9-.2-.5-.8-1-1-1-.5 0 .6.6 1.7 1.3 2.4 1 1 .7 1-1.5 0-1.5-.6-2.5-1.6-2.1-2.2.3-.6.1-.7-.6-.3-.6.4-.9 1.2-.6 1.7.4.5.2.9-.4.9-.5 0-1.5-.8-2-1.8-.6-.9-1.1-1.2-1.1-.5s-1.1 1-2.9.8c-1.7-.2-3.4.2-4.1 1-.7.8-1.6 1.3-2 1-.5-.3-1.1-.1-1.5.5-.3.5-1.4 1-2.3 1-1 0-.5-.6 1.3-1.6 1.7-.8 3.5-2 4-2.6.6-.7.2-.6-1.2.1-2.8 1.4-3.6 1.4-2.7-.1.4-.7.3-.8-.5-.4-.6.4-.8 1.2-.5 1.8.5.8.1.9-1 .5-1-.4-2-.7-2.2-.7-.3 0-.2-.5.2-1.2s.3-.8-.5-.4c-.9.6-.9 1.1 0 2.2 1 1.2 1 1.5-.2 1.2-.8-.2-2-1-2.7-1.8-1-1.3-1.1-1-.7 1.5.5 3 .5 3-.6.5-.7-1.4-1.1-2.9-1-3.5.2-.5-.1-.6-.6-.2-.4.5-.9 1.3-.9 1.8-.3 2.3-.6 2.3-2-.1-1.5-2.4-1.5-2.4-1-.2.3 1.5 0 2.2-.7 1.9-.7-.3-1.1-.9-1-1.4.1-.5-.7-.9-1.7-.9s-1.7.3-1.4.7c.2.4-.3 1-1.2 1.3-1 .4-1.3.2-.8-.6s.2-.9-1.2-.4c-1 .5-2.6.9-3.4 1-.8 0-1.8.8-2.2 1.6-.5 1.2-.7 1.2-.7-.3-.1-2-1.2-2.2-3-.5-1 1.1-1.5 1-2.5-.4-.7-1-2-1.8-2.8-1.8-.8 0-2-.6-2.7-1.3-1.1-1-1.1-.8 0 1 .7 1.2 1.9 1.9 2.8 1.6 1.4-.4 1.4-.3.1.5-1 .8-1.8.8-2.7 0-1.2-.9-1.7-.5-1.5 1.3.1.3-.6.6-1.4.6-1.2 0-1.2-.2.1-1.7 1.3-1.4 1.2-1.7-.8-2.9-2-1.3-2.1-1.3-.9.2.9 1 1 1.7.2 2.2-.5.3-1 .1-1-.6s-1.4 0-3.1 1.7c-1.7 1.6-2.9 2.3-2.7 1.5.2-.7-.3-1.6-1-1.8-.9-.4-1.2 2.9-1.1 14.6.1 8.7.5 15.1 1.1 15.1.5 0 .6.6.2 1.2-.9 1.4 2.6-1 3.8-2.7.5-.7.8-.6.8 0s-.6 1.7-1.2 2.4c-1.1 1-.7 1.1 1.6.5 2.3-.6 2.7-.4 2.1.7-.7 1.1-.5 1.1 1.1-.1 2.9-2.2 3-2.4 1.1-1.7-2.4.9-2.1 0 .4-1.4 1.5-.8 1.9-.8 1.5 0-.9 1.4.7 1.4 2.1 0 .8-.8 1.5-.6 2.4.8.8 1 2.1 1.9 2.9 2.1 1 .3.9-.3-.5-1.8-2-2.2-1.9-2.2 2 .1 2.7 1.6 3.6 1.8 2.7.7-1-1.2-1-1.8-.1-2.4.8-.4.9-.3.5.4s-.3 1.2.3 1.2c.5 0 1.3-.5 1.6-1.1.5-.7 1.2-.6 2.3.4 1 .8 2.4 1.8 3.2 2.2 1.3.8 1.3.7.1-.8-.8-1-1.1-2-.7-2.4.3-.3.6-.2.6.4 0 .5 1.2 1.5 2.7 2.2 2.3 1 2.5 1 1.4-.3-.9-1.1-.9-1.6 0-2.2.8-.5.9-.3.4.6-.6 1-.4 1.2.8.7.9-.3 1.9-.1 2.3.5.4.7.3.8-.4.4s-1.2-.3-1.2.3c0 .5.9.9 2 .8 1.5-.1 1.9-.6 1.4-2.2-.4-1.5-.3-1.7.5-.6.8 1.3 1.2 1.3 2.7 0 1.1-.9 1.5-.9 1-.2-.4.8-.1 1.3.9 1.3s1.4-.5.9-1.3c-.6-1-.4-1 .7 0 1.8 1.7 8.3 1.7 7.3 0-.6-.9-.4-.9.7.1 1.6 1.5 3.3 1.6 2.3 0-.4-.7-.3-.8.5-.4.9.6.9 1.1 0 2.2-.6.8-.9 1.7-.5 2.1.3.3.6.1.6-.6s.6-1.1 1.3-.8c.8.3 2 .1 2.8-.5 1.1-.8 1-.8-.5-.4-1.6.6-1.7.4-.5-1 .9-1.1 1.5-1.2 1.7-.5.3.9.8.9 2-.1 1.4-1 1.5-1 .5.2-2.2 2.4-1.4 3.1 1.4 1.3 1.9-1.3 2.5-1.4 1.8-.4-.6 1.1-.4 1.3.9.8 1-.4 2.4-.7 3.2-.7.9 0 1.2-.5.8-1.3-.4-.7-.2-.7.7.2 1.1 1 1.1 1.5.2 1.8-.7.3-1.3.9-1.3 1.4 0 .5.9.4 1.9-.3 1.1-.6 1.7-1.9 1.4-2.7-.3-1-.2-1.2.4-.5.4.6 1.9 1.7 3.3 2.4 2.4 1.3 2.4 1.2 1-.5-1.1-1.4-1.1-1.7-.1-1.1.8.5 1.7.3 2.3-.5.8-1.1.9-1 .4.3-.3 1.1-.1 1.7.7 1.5.7-.1 1.1.4.9 1.1-.2 1 .2 1 1.7 0 1-.6 1.8-1.6 1.7-2.2-.2-.6-.1-.8.1-.3.3.4 1 .4 1.5.1.6-.4.8-.2.4.4-.9 1.5 1.3 2.7 2.7 1.3.6-.6 1.7-1.1 2.5-1.1 1.2 0 1.2.3.1 1.7-.8.9-.9 1.4-.3 1 .7-.4 1.5 0 1.8.9.3.8.2 1.3-.3 1-.5-.3-1.1 0-1.4.8-.4 1 .1 1.3 1.6 1 1.2-.2 1.6-.2.9.2-.6.3-.9 1.1-.6 1.6.4.6.3.8-.3.5-.5-.3-.9 1.6-.9 4.8.1 2.9.4 5.1.7 4.9.3-.1.6.3.6 1.1s-.4 1.2-.9.9c-.9-.5-.2 5.2.8 6.8.3.4-.2.8-1.2.8-1.3 0-1.2.4.7 2.1 1.8 1.6 2 1.9.6 1.5-1-.3-1.6-.2-1.4.2.9 1.4 1.7 8.7.9 7.4-.5-.8-.8.3-.8 2.8.1 2.2.5 4 1 4 .4 0 .6.7.3 1.4-.4 1.1-.1 1.3 1.1 1 1.5-.5 1.5-.4-.1.9s-1.6 1.5-.2 2.1c.9.3 1.3.2 1-.4-.3-.6-.1-1 .4-1 .6 0 1.1.9 1.1 2s.5 2 1.1 2c.5 0 .7.5.3 1.2-.5.7-.3.8.7.2 2-1.2 3.8-1.4 4.5-.3.3.6 1.2.5 2.2-.3 1.4-1 1.5-1 .5.2-1.7 1.8-1.6 2.7.2 2.7.8 0 1.2-.3 1-.7-.2-.3.5-1.1 1.5-1.8 1.6-.9 2.2-.8 3.2.6.7.9 1.9 1.8 2.7 2 1.2.3 1.2.1 0-1.4-1.3-1.6-1.2-1.6.8-.6 1.6.9 2.3.9 2.6-.1.3-.6.6-.3.7.8l.1 2 .9-2c.7-1.7.9-1.7.9-.3.1 1 .6 1.8 1.2 1.8.5 0 .7-.6.3-1.3-.4-.6.1-.4 1.1.5 1.7 1.6 2 1.6 4.8-.4 1.7-1.2 2.7-1.7 2.3-1-.4.7-.3 1.2.3 1.2.5 0 1.3-.5 1.6-1 .4-.6 1.1-.8 1.6-.4.5.3 1.8 0 2.7-.7 1.3-1.1 1.2-.8-.2.9-2.4 2.8-.7 2.9 2.2.2 2.2-2 3.2-1.4 1.1.7-.7.7.3.9 3.3.8 5.9-.3 6-.3 5.2-1.8-.5-.8-.2-.8.9.2 2.2 1.8 2.2 3.5 0 2.6-1.4-.5-1.5-.3-.6.6 1.6 1.7 3.5.1 2.8-2.4-.5-1.9-.4-2 .7-.7.7.8 1.9 1.6 2.7 1.8 1.2.3 1.2.1.1-1.3-1.2-1.4-1.1-1.5 1.2-.5 2 .9 3.1.9 4.9-.1 2.1-1.1 2.3-1.1 1.1.3-1 1.3-1 1.8-.1 2.4.8.5.9.3.4-.6-.6-1-.4-1.2.8-.7.9.3 1.9.1 2.3-.5.4-.6.3-.8-.3-.5-.5.3-1 0-1-.7 0-1.1.4-1.2 1.9-.3 1.4.9 2.3.9 3.9-.1s1.9-1 1.3-.1c-.5.9-.2 1 .9.6.9-.3 1.9-.1 2.3.5.4.7.3.8-.4.4s-1.2-.2-1.2.4c0 .7.7.9 1.6.6.9-.3 1.8-.6 2-.6.3 0 .3-.4-.1-.9-.3-.5 0-1.3.6-1.7.8-.4.9-.3.5.4-.9 1.5.6 1.6 2 .2.7-.7 1.1-.6 1.1.4 0 .8-.4 1.3-.8 1-.4-.2-1.1.1-1.5.8-.4.7-.4 1 .1.6.4-.4 1.4-.3 2.2.4.8.6 1.3.7 1.2.2-.1-.5.1-1.7.6-2.7.7-1.7.8-1.7 2 0 .7 1 1.1 2.2.8 2.7-.4.5-.1.6.6.2.7-.5 1-1.5.7-2.3-.3-.8-.2-1.2.3-.8.5.3 1.2-.1 1.4-.7.4-1 .6-.9.6.1.1 1.1.4 1.1 1.9 0 1.5-1.3 1.6-1.2.3.3-.7 1-1.8 1.5-2.5 1.1-.7-.4-.6-.1.1.9.7.8 1 1.8.6 2.1-.3.4-.1.7.6.7s1.1-.6.8-1.3c-.3-.8.8-1.9 2.7-2.8 2.5-1.2 3.3-1.2 3.3-.2 0 .6-.5.9-1.1.6-.6-.3-.8-.2-.3.2.4.5 1.6.9 2.7 1 1.5.1 1.7-.2.9-1.1-.7-.8-.6-1.4.2-2 .8-.5.9-.3.4.6-.6 1-.4 1.2.8.7.9-.3 1.9-.1 2.3.5.4.7.3.8-.4.4s-1.2-.2-1.2.4c0 .7.7.9 1.6.6.9-.3 1.8-.6 2-.6.3 0 .3-.4-.1-.9-.3-.5-.1-1.2.4-1.5.6-.4.8.8.6 2.6l-.3 3.3 1.4-3.3c.8-1.7 1.7-3.2 2-3.2.3 0 .3.4-.1.9-.3.6.4.9 1.5.8 1.1-.1 1.9-.6 1.6-1.2-.2-.7 1-1 3.4-.9 2.7.1 3.7-.2 3.3-1.1-.2-.7.1-1.6.6-2 .6-.3.8-1.2.5-1.8-.4-.7-.3-.9.1-.4.5.4 2-.3 3.4-1.5 2.1-1.8 2.3-1.9 1-.3-.9 1.1-1.9 2.7-2.3 3.5-.4.8.2.3 1.4-1.3 1.2-1.5 2.6-2.5 3.1-2.2.5.4.6-.1.3-.9-.3-.9-1.1-1.6-1.7-1.6-.6 0-.7-.3-.4-.6.4-.4 1.4-.1 2.3.7 1.6 1.3 1.6 1.2.5-1-.7-1.3-.9-2.1-.4-1.8.5.3 1.5.2 2.3-.4 1.3-.7 1.3-.9 0-.9-.8 0-.2-.9 1.5-2s2.5-2 2-2c-.6 0-1.6.5-2.3 1.2-.8.8-1.2.8-1.2.1 0-1.6 2.5-3.4 3.6-2.5.4.4.2-.2-.6-1.2-1-1.3-1-1.7-.2-1.2.9.5 1.2-.3 1.2-3.3 0-2.2.5-4.3 1-4.6 1.3-.8 1.3-2.5-.1-2.5-.5 0-.7.6-.3 1.3.4.7.3.9-.2.4s-.9-1.2-.9-1.5c0-.4-.3-1.2-.7-1.8-.4-.6-.1-1.1.7-1.1.8 0 1.1.5.8 1.1-.3.6-.2.7.2.3 1.1-1 1.6-3.9.5-3.2-.4.3-1-.6-1.2-2-.3-1.3-.2-2.2.3-2 .4.3 1 .1 1.4-.5.3-.5-.1-1-.9-1-1.9 0-2.1-1.6-.4-2.6.7-.5.8-.3.3.6-.5.9-.4 1.1.4.6.9-.6.4-1.8-1.5-4.3-2.2-2.9-2.3-3.3-.7-2.5 1.5.9 2 .8 2-.3 0-.8-.4-1.2-.7-1-.4.3-1.6-.6-2.6-2-1-1.3-2.2-2.1-2.7-1.8-.6.3-.7.1-.3-.5.4-.6 1.4-.8 2.4-.5 1.4.5 1.4.3-.2-.9-1.1-.9-1.6-2-1.2-2.7.5-.8.2-1.1-.9-.9-1.7.3-2-.3-2.7-5.9-.1-.9-.5-1-1.4-.2-.9.8-1.1.5-.7-1 .3-1.3.1-2.1-.6-2.1s-.9-.5-.5-1.3c.5-.7 0-.6-1.1.3-1.1.9-1.6 1-1.1.2.4-.7.1-1.5-.8-1.8-.9-.3-1.6-1.4-1.6-2.3 0-1.2-.2-1.3-.9-.3-.7 1.1-.9 1.1-1.4-.2-.4-.9-.3-1.5.1-1.5 2.1.3 2.4-.3.6-1.7-1.6-1.3-1.6-1.5-.2-1 1 .3 1.7.2 1.7-.2-.3-1.8.2-3.3.9-2.8.5.3.9-.2.9-1 0-.9-.6-1.3-1.6-.9-.9.3-.5-.3.8-1.4 2-1.6 2.2-2 .9-2.7-1.4-.8-1.4-1 0-2.4 1.4-1.3 1.5-1.3 1 .1-.4.9-.1 1.6.6 1.6.8 0 1.1-.9.8-2.4-.2-1.2-.9-2-1.5-1.6-.6.3-.7.1-.3-.5.3-.6 1.6-.9 2.9-.7 2 .4 2.1.3.5-.9-2.2-1.6-2.4-3-.4-2.3 1.1.5 1.3 0 .7-2.1-.5-1.5-.6-3.3-.3-4.1.2-.7-.2-1.7-.9-2.2-1.2-.7-1.2-.9 0-.9 1.1 0 1.1-.3 0-1.7-1.2-1.4-1.2-1.6.2-1.1 1.2.5 1.5.1 1.1-1.8-.2-1.4-.9-2.1-1.6-1.7-.6.3-.6 0 .2-.8 1.4-1.6 1.6-3.3.2-2.4-1.7 1.1-1.1-.7.8-2.1 1.6-1.3 1.6-1.4-.2-.7-1.5.5-1.7.3-1.2-.8.4-.8 0-.5-.8.5-1.8 2.2-2.1 1.4-.6-1.4.7-1.4.4-2.3-1.4-4.1-1.3-1.3-2.2-3.2-2.1-4.1.2-.9-.3-2.2-1.1-2.9-1.2-1-1.3-.8-.8.7.5 1.9.5 1.9-1 0-.8-1-1.3-2.3-.9-2.9.3-.6.1-.7-.5-.3-.7.4-1.2.1-1.2-.7 0-.8-1.3-2-3-2.7-1.6-.7-3-1.7-3-2.2 0-.5.5-.6 1.2-.2.7.5.8.3.3-.6-.6-1-1.1-.9-2.2.5-1.1 1.6-1.3 1.6-1.3.3 0-.9-.7-1.9-1.6-2.2-1.3-.5-1.4-.4-.6.7.9 1.1.8 1.3-.6 1.2-2.8-.2-4.4-1.6-3.7-3.2.4-1.3.3-1.4-.9-.4-.8.7-1.2 2-1 2.9.5 1.6.5 1.6-.5 0-.6-.9-2-1.5-3.1-1.3-1.1.2-2.3-.1-2.6-.7-.4-.6-.3-.8.3-.5.5.3 1 0 1-.8 0-.9-.4-1.1-1.1-.6-1.7 1.4-2.8 1.4-3.8-.1-.7-.9-.8-.7-.3.7.5 1.5.3 1.7-.5.8-.8-.7-2.2-.8-4-.3-1.8.5-3.2.4-4-.3-.9-.9-1.4-.9-1.7-.1-.2.7-1.3 1-2.3.7-1.3-.3-2 0-2 .8 0 1.1-.2 1.1-1-.1-.7-1.1-1-1.1-1-.2 0 1-.3 1-1.4 0-.8-.7-1.1-1.8-.8-2.3.3-.6-.2-.4-1.1.4-.9.7-2.2 1.1-2.9.8-2-.7-3.3-.6-3.1.3.4 1.5-2.8 2-3.4.5-.4-1.2-.8-1.3-2-.3-1.1.9-1.6.9-2.4-.3-.5-.8-.9-1-.9-.4 0 .5-.5.3-1.1-.5-.8-1.2-.9-.9-.4 1 .5 2.3.5 2.3-.8.8-1.1-1.4-1.6-1.5-2.7-.5-1 .9-1.3.9-1.7-.1-.3-.6-.9-1.2-1.5-1.2s-.7.7-.4 1.6c.3.8.2 1.2-.4.9-.6-.3-1-1.4-1.1-2.3 0-1.2-.3-1.1-.9.5-.5 1.3-1.2 2.3-1.5 2.3-.4 0-.3-.5 0-1 .5-.9-.1-1.2-2.1-.9-.4 0-1.1-.5-1.5-1.3-.7-1-.9-1-.9 0 0 1.4-3.5 1.2-6-.3-1.3-.8-1.3-.7-.1.8.7.9 1.8 1.4 2.4 1 .6-.3.7-.1.3.6-.6.9-1.1.9-2.2 0-.7-.6-2.1-.8-3-.5-1.4.5-1.5.4-.4-.9 1-1.2 1-1.5 0-1.5-.9 0-.9-.4.1-1.7 1.2-1.5 1.2-1.6-.4-1-1.4.5-1.6.3-.9-1 1.2-2 .3-5.5-1.2-4.6-.6.3-.5 0 .2-.8 1.1-1.2 1.4-1.2 2.2.1.7 1.1.9 1 .7-.8-.1-1.3-.6-2.1-1.4-1.8-.9.4-1-.1-.2-2.2 1.6-4 2-8.2.8-8.2-.6 0-.7.5-.3 1.2.4.6.3.8-.2.5-1.3-.8-1-6.7.5-9.5.7-1.4.8-2.2.1-2.2-.5 0-1 .5-1 1.2 0 .6-.3.8-.7.5-.3-.4.2-1.7 1.3-2.9 1-1.2 1.4-1.8.7-1.5-.6.4-1.3.2-1.5-.4-.7-2 .4-7.9 1.3-7.3.5.3.6-.2.3-1-.3-.9-1-1.3-1.5-1-.5.3-.9.1-.9-.5 0-.5.6-1.2 1.3-1.4.9-.4.9-.7-.1-1.5-1.2-.8-1.8-2.5-2.1-5.5-.1-.4-.6-.7-1.2-.7-.5 0-.8.4-.5.8.3.5-.1.9-.9.9s-1.2-.3-1-.6c.2-.4-3-.6-7.1-.6s-7.4.3-7.4.7c0 .5-.5.8-1.1.8-.5 0-.8-.4-.5-.8.2-.4-1.1-.8-3-.8-2.2 0-3.3.5-3 1.2zm16.1 1.2c-.3.3-1.1 0-1.8-.7-.9-1-.8-1.1.6-.5 1 .3 1.5.9 1.2 1.2zm-4.1.4c-.3.4-1.1.5-1.9.1-2.1-.7-1.9-1.2.4-1 1.1 0 1.8.5 1.5.9zm16.1 32.7c.3.5.2 1.2-.3 1.5-.5.3-.9-.1-.9-.9 0-1.7.3-1.9 1.2-.6zM146 87.6c0 .8-1.9 1.3-2.4.6-.3-.5.1-.9.9-.9s1.5.2 1.5.3zm73.8 8.9c-.3.3-.9-.2-1.2-1.2-.6-1.4-.5-1.5.5-.6.7.7 1 1.5.7 1.8zm9.2 11c.7.9.8 1.5.2 1.5-.5 0-1.2-.7-1.6-1.5-.3-.8-.4-1.5-.2-1.5s.9.7 1.6 1.5zm-125.9 9.8c-1 .9-1.1.8-.5-.6.3-1 .9-1.5 1.2-1.2.3.3 0 1.1-.7 1.8zm36.5.6c-.3.5.1 1.4.9 2.1 1.3 1.1 1.4 1 1-.3-.4-.8-.1-1.8.6-2.3.8-.5 1-.3.4.6-.6 1-.4 1.2.8.7 1-.3 1.7-.2 1.7.2 0 .5-.6 1.1-1.2 1.4-.7.3-.3.4.9.4 1.8-.1 2.2-.6 1.8-2.2-.3-1.1-.2-1.4.1-.8.3.7 1 1.3 1.5 1.3.6 0 .7-.5.3-1.2-.5-.7-.3-.8.7-.2 1.9 1.2 4.2 1.1 5.1-.1.5-.6.8-.6.8.2 0 .6.9 1 2 .8 1.1-.2 2.3.1 2.6.7.5.7.2.8-.6.3-.9-.6-1.1-.4-.5.5.6 1 1.3.7 2.7-1.1 1.1-1.3 1.7-1.8 1.3-1.2-.5 1 .4 1.2 3.4.8 2.4-.3 4.3-.1 4.7.7.5.7.3.8-.6.3-.9-.5-1.1-.4-.6.4.5.7 1.2.9 1.9.3.7-.5 2.2-1.2 3.5-1.5 1.7-.4 2.1-.2 1.3.7-.7.8-.5 1.2.8 1.2 1.1 0 1.7-.6 1.4-1.3-.4-.9 0-1.1 1.1-.7.9.3 2.3.1 3-.6 1.2-.9 1.7-.7 2.5.8.6 1.1.7 2.3.3 2.7-.4.5-.2.5.5.1s1-1.4.7-2.4c-.5-1.4-.3-1.4 1 .2 1.2 1.4 1.6 1.6 1.6.5 0-1.8 6.9-1.9 8.8-.2.7.7 2 1.3 2.8 1.3.8 0 1.4.5 1.4 1.1 0 .5-.6.7-1.2.3-.9-.5-.9-.3.1.9.7.9 1.8 1.4 2.4 1 .6-.4.7-.1.1.8-.5.8-.9 2.2-1 3.1-.1 1-.3 2.1-.4 2.5-.2.5-.4 1.4-.4 2.2-.1.8-.8 1.6-1.6 1.8-1.3.4-1.3.3 0-.6.9-.7 1-1.1.3-1.1-2 0-2.4 1.8-.7 3.5 1.5 1.5 1.4 1.5-1 1.1-1.4-.2-2.9 0-3.2.6-.4.7-.2.8.4.4.6-.4 1 .1.9 1.3-.1 1.5-.4 1.7-1.4 1-.9-.8-1.1-.5-.8 1.3.4 2.2.4 2.2-1 .4-.9-1.2-1.5-1.5-1.5-.7s-.7 1.1-1.9.8c-1.4-.3-1.8-.1-1.4.9.3.8 0 1.4-.6 1.4s-1.1-.4-1.1-.9c0-.4-1-.7-2.2-.7-1.3.1-2.9-.3-3.7-.8-1.2-.9-1.2-.8-.3.9 1 2 .8 2.1-3.1 2-2.3-.1-4.6.3-5 .9-.5.7-.7.5-.4-.4.2-.8 1.4-1.4 2.5-1.4 1.2.1 2.2-.2 2.2-.6 0-.4-1.3-.7-3-.6-1.6 0-3 .6-3 1.3 0 .7-.7 1-1.7.6-1.1-.4-1.4-.3-.9.6.6 1 .4 1-1.2 0-1.2-.7-1.8-1.7-1.5-2.2.3-.5-.5-.3-1.8.5s-3.1 1.4-3.9 1.3c-.8 0-1.9.4-2.3 1-.5.5-.6.1-.3-1.1.4-1.4.2-2.1-.8-2.1-.9 0-1.3.4-1 .9.3.4-.2.8-1 .8-.9 0-1.7-.8-1.7-1.8-.1-1.6-.2-1.6-.6 0-.4 1.8-.8 2-4 2.1-1 .1-2.2.6-2.6 1.2-.6.6-.7.3-.4-.7.4-1-.1-1.8-1.4-2.1-1.6-.4-1.8-.3-.9.7.8 1.1.4 1.3-1.7 1-2.4-.3-2.8.1-3 2.4-.1 1.5-.6 5.1-1.1 8-.5 3.3-.5 5.5.1 5.9.6.3.7.1.3-.5-.3-.6-.2-1.3.3-1.6.5-.4.8.2.6 1.1-.2 1-.4 1.8-.5 1.8-.1 0-.3 1.9-.5 4.2-.1 2.4.2 4.3.7 4.3.5 0 .6.4.3 1-.3.5-.1 1 .6 1s1 .2.7.5c-.9.9-3.8-.6-3.2-1.6.3-.5.2-.9-.3-.8-2 .3-3.4-.2-2.8-1.1.3-.5 1.3-.7 2.3-.4 1.4.5 1.4.4.2-.4-.8-.6-1.7-.9-2.1-.6-.4.2-1 0-1.3-.5-.4-.5-.2-1.2.3-1.5.4-.3.7-1.9.5-3.6-.2-1.6.1-3 .6-3 .6 0 1-.5 1-1.1 0-.5-.4-.8-.9-.5-.5.3-1.1-.1-1.5-.9-.3-.8-.1-1.7.4-2 .5-.3.7-1.7.4-3-.2-1.4 0-2.5.6-2.5s.8.5.4 1.1c-.4.8 0 .8 1.5 0 1.1-.7 2.1-1.4 2.1-1.7 0-.3-.4-.3-.9 0-.5.4-1.7.3-2.6 0-1.3-.5-1.4-.8-.3-1.5 1.1-.7 1.1-.9-.1-.9-1.1 0-1.1-.3 0-1.7.8-.9.9-1.4.3-1-1.4.8-1.6-4.6-.4-7.9.6-1.5.6-2.4 0-2.4s-1-.5-1-1.1c0-.5.6-.7 1.3-.3 1 .6 1 .4 0-.7-1.5-1.5-1.8-4.3-.4-3.5 1.1.7.8-2.1-.4-3.1-.4-.4-.5-.2 0 .6.5 1 .4 1.2-.4.7-.6-.4-.9-1.2-.5-1.7.3-.5 1-.7 1.5-.4.5.4.9.1.9-.4 0-.6-.4-1.1-1-1.1-.5 0-1-.5-1-1.2 0-.6.3-.9.6-.6.3.3 1.7-.5 3.1-1.8 2.7-2.5 3.8-3.1 2.9-1.5zm61.4 1.3c0 .4-.4.8-.9.8-.6 0-1.2-.4-1.5-.8-.3-.5.1-.9.9-.9s1.5.4 1.5.9zm-14.9 26.5c1.2 1.6 1.2 1.7-.2.6-.9-.7-1.9-1-2.2-.6-.4.3-.7.1-.7-.5 0-1.7 1.6-1.5 3.1.5zm-120.7.1c.3.5-.1.9-.9.9s-1.5-.4-1.5-.9c0-.4.4-.8.9-.8.6 0 1.2.4 1.5.8zm4 .4c-.3.4-.9.8-1.5.8-.5 0-.9-.4-.9-.8 0-.5.7-.9 1.5-.9s1.2.4.9.9zm21.1.9c-.4.5-1.2.9-1.8.8-.9 0-.8-.2.1-.6.6-.2.9-1 .6-1.5-.4-.7-.2-.8.5-.4.6.4.9 1.2.6 1.7zm-49.8.5c-.3.3-1.2.4-1.9.1-.8-.3-.5-.6.6-.6 1.1-.1 1.7.2 1.3.5zm99.7 27.9c.3-.3.2.1-.4.7-1.3 1.6-1.3 2.8.1 2.8.5 0 .8-.3.6-.8-.3-.4.2-1.3 1-2.1 1.3-1.2 1.4-1.1.9.5-.5 1.6 0 1.9 2.8 2 2.7.1 3.2-.1 2.3-1.1-.9-1-1.4-1-2-.1-.6.7-.7.6-.5-.3.2-.8 1.2-1.5 2.1-1.7.9-.1 1.4.2 1.1.8-.4.6.2.8 1.2.6 1.1-.2 1.8-1.1 1.6-1.9-.2-1.1 0-1.1 1 .2 2.3 2.7 8 4.6 7.1 2.2-.5-1.2-.7-1.2-1.4-.1-.6.9-.8.6-.6-.9.1-1.4.5-1.9 1.2-1.3.5.4 1.5.9 2 1 .6.1.9.7.8 1.4-.2.6.7 1.2 2 1.3 1.2 0 1.6-.1 1-.4-1.5-.6-1.7-2.9-.3-3.8.6-.3.7.1.4.9-.8 2 1.5 2.1 4.3.1 1.9-1.4 2.1-1.3 1.8.3-.1 1-.9 1.6-2 1.4-1.4-.3-1.5-.1-.4 1.1 1.2 1.3 1.6 1.2 2.9-.8 1.3-1.9 1.7-2.1 2.8-.9 1.8 1.9 3.8 1.8 2.2-.1-.7-.8-.9-1.5-.6-1.5.9 0 3.6 2.6 3.3 3.1-.1.2.5-.5 1.4-1.5 1.6-1.8 1.8-1.9 3.4-.3 1.9 1.9 3.6 2.2 3.3.6-.2-.6.5-1.3 1.5-1.4.9-.2 1.5.1 1.1.6-.3.5 0 .9.6.9s.9.3.7.7c-.3.5.7.9 2.1.9 1.5.1 2.1-.1 1.4-.3-.6-.3-1-.9-.7-1.4.4-.5-.2-.6-1.2-.2-1.9.7-1.8.5 1.1-1.7 1.1-.8 1.7-1 1.3-.3-.4.6-.3 1.4.3 1.8.5.3 1 0 1-.7 0-.8.3-.9.8-.3.9 1.3 5.6 3.9 4.9 2.8-.3-.5.2-.9 1.1-1 1-.1 2.5 1.2 3.5 2.8.9 1.7 2.1 2.8 2.6 2.4.5-.3 1.3 0 1.7.6.4.8.3.9-.4.5-1.9-1.2-1.4 2 .6 3.5 1.5 1.2 1.6 1.2.5-.2-1-1.3-1-1.6 0-1.6 1.3 0 1.7 1.1 1.8 4.9 0 1 .6 1.8 1.2 1.8.8 0 .8.3-.1.9-.8.4-1.4 1.2-1.4 1.6 0 .4.6 1.2 1.4 1.6 1 .7 1 .9-.3.9-1.1 0-1.5.8-1.3 2.6.2 2.5.2 2.5-2.2.9-2.7-1.8-3.1-1.4-.8.9.8.9 1.1 1.6.5 1.6-.5 0-1.2-.4-1.6-1-.3-.5-1.2-.7-2.1-.3-.8.3-1.4.1-1.2-.5.2-.5-.1-.9-.7-.8-.5 0-.9.7-.9 1.3.2 1.9-.5 1.6-2.8-1-1.1-1.2-1.7-1.6-1.3-1 .4.8-.1 1.3-1.4 1.3-1.1 0-2.3.4-2.6 1-.3.5-1.1 1-1.7 1-.6 0-.3-1 .8-2.2 1-1.3 1.2-1.7.4-1.1-.9.6-2.8 1-4.3.9-2.3-.3-2.5-.1-1.5 1.2 1.1 1.3 1.1 1.4-.2.7-.8-.4-2.4-1.5-3.4-2.4-1.8-1.5-1.8-1.5-.7.6 1.7 3.3 1.3 3.8-1 1.2-1.1-1.3-1.8-1.8-1.4-1.2.3.7.3 1.4-.2 1.4-3.7.6-5.2.5-4.6-.4.3-.6.1-.7-.5-.3-.6.4-2.2.1-3.4-.5-2.1-1.1-2.2-1.1-.9.5 1.2 1.5 1.2 1.7 0 1.4-.8-.2-2-1-2.7-1.8-1.1-1.3-1.2-1.1-.8 1 .3 1.4.3 1.9 0 1.2-.3-.6-1-.9-1.6-.6-.6.4-.8-.2-.3-1.7.4-1.7.3-2-.3-1-.5.7-1.4 1.1-2 .7-.6-.3-1.4-.1-1.8.5-.4.7-.3.9.4.5.6-.3 1.3-.3 1.5.1.3.5-1.2.9-3.4.9-2.1.1-3.9-.2-3.9-.6 0-.4-.9-1-1.9-1.3-1.4-.3-1.8-.1-1.4.9.3.8 1 1.1 1.6.7.6-.3.7-.1.3.6-.6.8-1.2.9-2 .2-.7-.6-1.7-.7-2.1-.3-.5.4-.4.1 0-.7.6-1.1.4-1.3-.7-.8-.9.3-2.1 0-2.8-.6-1-.9-1.1-.9-.6 0 .9 1.6.1 1.6-2.7.1-1.9-1-2-.9-.9.4 1 1.3.9 1.5-1.3 1-1.4-.2-2.5-.9-2.5-1.5s-.7-.2-1.5.9c-.8 1-1.5 1.5-1.5 1s-.6-.3-1.4.3c-1.2 1-1.4.8-1.2-1.4.2-1.8 0-2.3-.8-1.6-.9.7-1.3 0-1.4-2.5-.2-2.7 0-3.4 1-2.8 1.1.6 1.1.5 0-.8-.7-.8-.9-2.4-.5-3.3.4-1.2.3-1.6-.4-1.2-.7.5-.9 0-.6-1.3.3-1.1.8-1.8 1.2-1.5 1.3.8.5-3.3-1-5.1-.8-1-.9-1.5-.2-1.1.6.4 1.4.3 1.8-.3.3-.5.1-1-.4-1-.6 0-1.1-.7-1.1-1.6 0-.8.4-1.3.8-1 .5.3.9-.1.9-.9s-.4-1.2-.9-.9c-.4.3-.8.1-.8-.4 0-2 1.4-2 4-.2 1.5 1.1 3 1.7 3.4 1.5zm-47.6 2c-.3.3-.9-.2-1.2-1.2-.6-1.4-.5-1.5.5-.6.7.7 1 1.5.7 1.8zm7-1.3c-.2.6-1 1.4-1.6 1.6-.7.2-1-.2-.6-1.2.7-1.8 2.8-2.2 2.2-.4zm34.2 7.2c0 .3-.4.8-1 1.1-.5.3-1 .1-1-.4 0-.6.5-1.1 1-1.1.6 0 1 .2 1 .4zm66.3 19.1c-.3.9-.8 1.4-1 1.1-.3-.3-.2-.9.2-1.5.9-1.6 1.5-1.3.8.4zM143 204c0 .5-.2 1-.4 1-.3 0-.8-.5-1.1-1-.3-.6-.1-1 .4-1 .6 0 1.1.4 1.1 1zm6.7-.4c-.3.3-1.2.4-1.9.1-.8-.3-.5-.6.6-.6 1.1-.1 1.7.2 1.3.5zm3.4 29.7c-1 .9-1.1.8-.5-.6.3-1 .9-1.5 1.2-1.2.3.3 0 1.1-.7 1.8zm-16.3.4c-.6.7-1.2 1.3-1.3 1.3-.2 0-.5-.6-.8-1.3-.3-.7.3-1.3 1.4-1.3 1.3 0 1.5.3.7 1.3zm19.7-.7c.3.5.1 1-.4 1-.6 0-1.1-.5-1.1-1 0-.6.2-1 .4-1 .3 0 .8.4 1.1 1z"/><path d="M182.5 118.9c-.3.5-.1 1.2.5 1.6.5.3 1-.1 1-.9 0-1.8-.6-2.1-1.5-.7zM151 120c0 .5.5 1 1.1 1 .5 0 .7-.5.4-1-.3-.6-.8-1-1.1-1-.2 0-.4.4-.4 1zM196.6 121.8c-.3.5.1.9.9.9s1.2-.4.9-.9c-.3-.4-.7-.8-.9-.8-.2 0-.6.4-.9.8zM199.8 125.7c.7.3 1.6.2 1.9-.1.4-.3-.2-.6-1.3-.5-1.1 0-1.4.3-.6.6zM200.9 127.5c-.1.3-.2.8-.3 1.2-.1.5-.5 1.5-1 2.3-.7 1.2-.6 1.3.4.3 1.3-1.2 2.3-4.3 1.4-4.3-.2 0-.5.2-.5.5zM161.5 143.1c-.4.6-.5 1.2-.2 1.5.2.3.7-.2 1-1.1.7-1.7.1-2-.8-.4zM147 144c0 .4.7.7 1.5.6 2.3-.3 2.6-1.2.5-1.3-1.1-.1-2 .2-2 .7zM134.3 154.8c-.8 1.4-.8 1.9.1 1.9.7 0 1.3-.9 1.3-1.9.1-1 .1-1.8 0-1.8s-.7.8-1.4 1.8zM134.3 163.2c-.1 1.1.1 1.6.5 1.2.4-.5 1.1-1.2 1.5-1.5.5-.3.2-.9-.5-1.2-.9-.3-1.4.3-1.5 1.5zM133.5 167c-.3.6.1.7.9.4 1.8-.7 2.1-1.4.7-1.4-.6 0-1.3.4-1.6 1zM181 177.5c0 .8.4 1.5 1 1.5.5 0 .7-.7.4-1.5-.4-.8-.8-1.5-1-1.5-.2 0-.4.7-.4 1.5zM151 178.2c0 .6.3.8.7.5.3-.4 1.6.1 2.7 1 2.1 1.8 2.1 1.8.2-.5-2.1-2.4-3.6-2.9-3.6-1zM203 179.5c0 .8.4 1.5 1 1.5.5 0 .7-.7.4-1.5-.4-.8-.8-1.5-1-1.5-.2 0-.4.7-.4 1.5zM211 190.1c0 .5.5.7 1 .4.6-.3 1-.8 1-1.1 0-.2-.4-.4-1-.4-.5 0-1 .5-1 1.1zM211.9 192.2c-.5 1.8-.6 3.8-.1 3.4.7-.8 1.2-3.6.6-3.6-.2 0-.4.1-.5.2zM159 200.8c0 .5.7.9 1.5.9s1.2-.4.9-.9c-.3-.4-.9-.8-1.5-.8-.5 0-.9.4-.9.8zM179 201c0 .5.5 1 1.1 1 .5 0 .7-.5.4-1-.3-.6-.8-1-1.1-1-.2 0-.4.4-.4 1zM132.4 33c.1 1.4.6 2.4.9 2.2 1.1-.4 1.1-.6-.1-2.7-1.1-1.9-1.2-1.8-.8.5zM101.7 44.7c-1 .9-.9 2.3.1 2.3.5 0 .9-.7.9-1.5 0-1.7-.1-1.8-1-.8zM133.5 60c-.3.5-.1 1 .4 1 .6 0 1.1-.5 1.1-1 0-.6-.2-1-.4-1-.3 0-.8.4-1.1 1zM166.1 86.6c0 1.1.3 1.4.6.6.3-.7.2-1.6-.1-1.9-.3-.4-.6.2-.5 1.3zM179 86.1c0 .5.5.7 1 .4.6-.3 1-.8 1-1.1 0-.2-.4-.4-1-.4-.5 0-1 .5-1 1.1zM201.7 85.7c-1.1 1.1-.8 2 .7 2 .8 0 1.2-.6.9-1.4-.6-1.5-.7-1.5-1.6-.6zM207.5 89c.3.5.8 1 1.1 1 .2 0 .4-.5.4-1 0-.6-.5-1-1.1-1-.5 0-.7.4-.4 1zM101.5 92c.4.6 1.1.8 1.6.5 1.4-.9 1.1-1.5-.7-1.5-.8 0-1.2.5-.9 1zM8.9 143.7c-.1.4-.1 1.2 0 1.6.1.5-.9.5-2.1.2-1.3-.4-2.1-.6-1.8-.3 3.6 2.9 3.9 2.9 4.9.9.7-1.3.8-2.2.1-2.6-.5-.3-1.1-.3-1.1.2zM32.2 144.6c-.7.8-.8 1.4-.3 1.4 1 0 2.5-1.9 2-2.5-.2-.1-1 .3-1.7 1.1zM24.3 145.7c0 .7.4 1.3.7 1.3.4 0 1.2-.6 1.8-1.3.8-1 .6-1.3-.7-1.3-1 0-1.8.6-1.8 1.3zM17.5 178.7c-2.8 2.4-2.8 2.5-.3.9 3.4-2 3.8-2 3.9.1 0 1 .3 1.3.5.6.3-.7.2-1.9-.3-2.7-.7-1.2-1.3-1-3.8 1.1zM31.6 176.7c-.3.4-.6 1.1-.6 1.6 0 .6.3.7.7.4.3-.4 1.2-.2 2 .5 2 1.7 2.2.6.2-1.4-.9-.9-2-1.4-2.3-1.1zM52 178c-.8.5-1.2 1.2-.9 1.5.4.3 1.2-.1 1.9-1 1.4-1.7 1.1-1.9-1-.5zM59.6 178.6c-2.3 2.3-2 3 .4.9 1.1-1 2-2 2-2.2 0-.7-.9-.2-2.4 1.3zM110.6 233.1c.3.5.9.7 1.4.4.4-.3 1.1 0 1.3.5.3.6.4.5.3-.1-.1-.7-1-1.3-1.9-1.5-.9-.1-1.5.2-1.1.7zM119.5 233c-.4.6-.3 1.6.3 2.2 1.3 1.3 2.3-.4 1.3-2.1-.7-1-1-1-1.6-.1zM223 233.1c0 .5.5.7 1 .4.6-.3 1-.8 1-1.1 0-.2-.4-.4-1-.4-.5 0-1 .5-1 1.1zM180.6 234.3c.3 1 .9 1.5 1.2 1.2.3-.3 0-1.1-.7-1.8-1-.9-1.1-.8-.5.6zM167 236c0 .5.5 1 1.1 1 .5 0 .7-.5.4-1-.3-.6-.8-1-1.1-1-.2 0-.4.4-.4 1z"/></svg>